<svg xmlns="http://www.w3.org/2000/svg" width="800" height="600" viewBox="0 0 800 600">
<rect width="100%" height="100%" fill="white"/>
<text x="400" y="35" text-anchor="middle" font-family="Arial" font-size="20" font-weight="bold">Perceptron - Classificacao Chuva vs Sol</text>
<line x1="90" y1="520" x2="760" y2="520" stroke="black" stroke-width="2"/>
<line x1="90" y1="70" x2="90" y2="520" stroke="black" stroke-width="2"/>
<line x1="120.5" y1="70" x2="120.5" y2="520" stroke="#dddddd"/>
<line x1="90" y1="499.5" x2="760" y2="499.5" stroke="#dddddd"/>
<text x="120.5" y="545" text-anchor="middle" font-family="Arial" font-size="12">0.0</text>
<text x="78" y="503.5" text-anchor="end" font-family="Arial" font-size="12">0.0</text>
<line x1="242.3" y1="70" x2="242.3" y2="520" stroke="#dddddd"/>
<line x1="90" y1="417.7" x2="760" y2="417.7" stroke="#dddddd"/>
<text x="242.3" y="545" text-anchor="middle" font-family="Arial" font-size="12">0.2</text>
<text x="78" y="421.7" text-anchor="end" font-family="Arial" font-size="12">0.2</text>
<line x1="364.1" y1="70" x2="364.1" y2="520" stroke="#dddddd"/>
<line x1="90" y1="335.9" x2="760" y2="335.9" stroke="#dddddd"/>
<text x="364.1" y="545" text-anchor="middle" font-family="Arial" font-size="12">0.4</text>
<text x="78" y="339.9" text-anchor="end" font-family="Arial" font-size="12">0.4</text>
<line x1="485.9" y1="70" x2="485.9" y2="520" stroke="#dddddd"/>
<line x1="90" y1="254.1" x2="760" y2="254.1" stroke="#dddddd"/>
<text x="485.9" y="545" text-anchor="middle" font-family="Arial" font-size="12">0.6</text>
<text x="78" y="258.1" text-anchor="end" font-family="Arial" font-size="12">0.6</text>
<line x1="607.7" y1="70" x2="607.7" y2="520" stroke="#dddddd"/>
<line x1="90" y1="172.3" x2="760" y2="172.3" stroke="#dddddd"/>
<text x="607.7" y="545" text-anchor="middle" font-family="Arial" font-size="12">0.8</text>
<text x="78" y="176.3" text-anchor="end" font-family="Arial" font-size="12">0.8</text>
<line x1="729.5" y1="70" x2="729.5" y2="520" stroke="#dddddd"/>
<line x1="90" y1="90.5" x2="760" y2="90.5" stroke="#dddddd"/>
<text x="729.5" y="545" text-anchor="middle" font-family="Arial" font-size="12">1.0</text>
<text x="78" y="94.5" text-anchor="end" font-family="Arial" font-size="12">1.0</text>
<line x1="90.0" y1="360.9" x2="754.7" y2="70.0" stroke="green" stroke-width="4"/>
<polygon points="242.3,123.4 250.3,131.4 242.3,139.4 234.3,131.4" fill="orange"/>
<polygon points="333.6,143.8 341.6,151.8 333.6,159.8 325.6,151.8" fill="orange"/>
<polygon points="211.8,184.7 219.8,192.7 211.8,200.7 203.8,192.7" fill="orange"/>
<polygon points="364.1,164.3 372.1,172.3 364.1,180.3 356.1,172.3" fill="orange"/>
<polygon points="181.4,102.9 189.4,110.9 181.4,118.9 173.4,110.9" fill="orange"/>
<polygon points="272.7,205.2 280.7,213.2 272.7,221.2 264.7,213.2" fill="orange"/>
<polygon points="303.2,131.5 311.2,139.5 303.2,147.5 295.2,139.5" fill="orange"/>
<polygon points="394.5,197.0 402.5,205.0 394.5,213.0 386.5,205.0" fill="orange"/>
<polygon points="230.1,156.1 238.1,164.1 230.1,172.1 222.1,164.1" fill="orange"/>
<polygon points="351.9,119.3 359.9,127.3 351.9,135.3 343.9,127.3" fill="orange"/>
<polygon points="193.5,213.4 201.5,221.4 193.5,229.4 185.5,221.4" fill="orange"/>
<polygon points="376.3,176.5 384.3,184.5 376.3,192.5 368.3,184.5" fill="orange"/>
<rect x="449.5" y="309.5" width="12" height="12" fill="royalblue"/>
<rect x="632.2" y="370.8" width="12" height="12" fill="royalblue"/>
<rect x="662.6" y="411.7" width="12" height="12" fill="royalblue"/>
<rect x="571.3" y="350.4" width="12" height="12" fill="royalblue"/>
<rect x="693.1" y="452.6" width="12" height="12" fill="royalblue"/>
<rect x="540.8" y="391.3" width="12" height="12" fill="royalblue"/>
<rect x="479.9" y="329.9" width="12" height="12" fill="royalblue"/>
<rect x="601.7" y="432.2" width="12" height="12" fill="royalblue"/>
<rect x="510.4" y="362.6" width="12" height="12" fill="royalblue"/>
<rect x="589.5" y="321.7" width="12" height="12" fill="royalblue"/>
<rect x="650.5" y="403.5" width="12" height="12" fill="royalblue"/>
<rect x="467.7" y="338.1" width="12" height="12" fill="royalblue"/>
<text x="400" y="570" text-anchor="middle" font-family="Arial" font-size="15">Umidade Normalizada</text>
<text x="25" y="300" text-anchor="middle" font-family="Arial" font-size="15" transform="rotate(-90 25 300)">Pressao Normalizada</text>
<rect x="575" y="75" width="14" height="14" fill="royalblue"/>
<text x="598" y="87" font-family="Arial" font-size="13">Chuva (1)</text>
<polygon points="582,110 590,118 582,126 574,118" fill="orange"/>
<text x="598" y="122" font-family="Arial" font-size="13">Sol (-1)</text>
<line x1="574" y1="145" x2="590" y2="145" stroke="green" stroke-width="4"/>
<text x="598" y="149" font-family="Arial" font-size="13">Fronteira de Decisao</text>
</svg>