<svg xmlns="http://www.w3.org/2000/svg" width="800" height="600" viewBox="0 0 800 600">
<rect width="100%" height="100%" fill="white"/>
<text x="400" y="35" text-anchor="middle" font-family="Arial" font-size="20" font-weight="bold">Perceptron - Classificacao de Credito</text>
<line x1="90" y1="520" x2="760" y2="520" stroke="black" stroke-width="2"/>
<line x1="90" y1="70" x2="90" y2="520" stroke="black" stroke-width="2"/>
<line x1="120.5" y1="70" x2="120.5" y2="520" stroke="#dddddd"/>
<line x1="90" y1="499.5" x2="760" y2="499.5" stroke="#dddddd"/>
<text x="120.5" y="545" text-anchor="middle" font-family="Arial" font-size="12">0.0</text>
<text x="78" y="503.5" text-anchor="end" font-family="Arial" font-size="12">0.0</text>
<line x1="242.3" y1="70" x2="242.3" y2="520" stroke="#dddddd"/>
<line x1="90" y1="417.7" x2="760" y2="417.7" stroke="#dddddd"/>
<text x="242.3" y="545" text-anchor="middle" font-family="Arial" font-size="12">0.2</text>
<text x="78" y="421.7" text-anchor="end" font-family="Arial" font-size="12">0.2</text>
<line x1="364.1" y1="70" x2="364.1" y2="520" stroke="#dddddd"/>
<line x1="90" y1="335.9" x2="760" y2="335.9" stroke="#dddddd"/>
<text x="364.1" y="545" text-anchor="middle" font-family="Arial" font-size="12">0.4</text>
<text x="78" y="339.9" text-anchor="end" font-family="Arial" font-size="12">0.4</text>
<line x1="485.9" y1="70" x2="485.9" y2="520" stroke="#dddddd"/>
<line x1="90" y1="254.1" x2="760" y2="254.1" stroke="#dddddd"/>
<text x="485.9" y="545" text-anchor="middle" font-family="Arial" font-size="12">0.6</text>
<text x="78" y="258.1" text-anchor="end" font-family="Arial" font-size="12">0.6</text>
<line x1="607.7" y1="70" x2="607.7" y2="520" stroke="#dddddd"/>
<line x1="90" y1="172.3" x2="760" y2="172.3" stroke="#dddddd"/>
<text x="607.7" y="545" text-anchor="middle" font-family="Arial" font-size="12">0.8</text>
<text x="78" y="176.3" text-anchor="end" font-family="Arial" font-size="12">0.8</text>
<line x1="729.5" y1="70" x2="729.5" y2="520" stroke="#dddddd"/>
<line x1="90" y1="90.5" x2="760" y2="90.5" stroke="#dddddd"/>
<text x="729.5" y="545" text-anchor="middle" font-family="Arial" font-size="12">1.0</text>
<text x="78" y="94.5" text-anchor="end" font-family="Arial" font-size="12">1.0</text>
<line x1="760.0" y1="514.7" x2="258.2" y2="70.0" stroke="green" stroke-width="4"/>
<polygon points="181.4,409.7 189.4,417.7 181.4,425.7 173.4,417.7" fill="orange"/>
<polygon points="272.7,368.8 280.7,376.8 272.7,384.8 264.7,376.8" fill="orange"/>
<polygon points="364.1,430.2 372.1,438.2 364.1,446.2 356.1,438.2" fill="orange"/>
<polygon points="242.3,287.0 250.3,295.0 242.3,303.0 234.3,295.0" fill="orange"/>
<polygon points="211.8,450.6 219.8,458.6 211.8,466.6 203.8,458.6" fill="orange"/>
<polygon points="303.2,389.3 311.2,397.3 303.2,405.3 295.2,397.3" fill="orange"/>
<polygon points="193.5,327.9 201.5,335.9 193.5,343.9 185.5,335.9" fill="orange"/>
<polygon points="351.9,417.9 359.9,425.9 351.9,433.9 343.9,425.9" fill="orange"/>
<polygon points="254.5,348.4 262.5,356.4 254.5,364.4 246.5,356.4" fill="orange"/>
<polygon points="394.5,442.5 402.5,450.5 394.5,458.5 386.5,450.5" fill="orange"/>
<polygon points="230.1,377.0 238.1,385.0 230.1,393.0 222.1,385.0" fill="orange"/>
<polygon points="321.5,319.7 329.5,327.7 321.5,335.7 313.5,327.7" fill="orange"/>
<polygon points="181.4,295.2 189.4,303.2 181.4,311.2 173.4,303.2" fill="orange"/>
<polygon points="284.9,434.3 292.9,442.3 284.9,450.3 276.9,442.3" fill="orange"/>
<polygon points="382.4,356.5 390.4,364.5 382.4,372.5 374.4,364.5" fill="orange"/>
<polygon points="217.9,401.5 225.9,409.5 217.9,417.5 209.9,409.5" fill="orange"/>
<polygon points="333.6,307.5 341.6,315.5 333.6,323.5 325.6,315.5" fill="orange"/>
<polygon points="412.8,450.6 420.8,458.6 412.8,466.6 404.8,458.6" fill="orange"/>
<polygon points="260.5,336.1 268.5,344.1 260.5,352.1 252.5,344.1" fill="orange"/>
<polygon points="370.2,381.1 378.2,389.1 370.2,397.1 362.2,389.1" fill="orange"/>
<polygon points="205.7,426.1 213.7,434.1 205.7,442.1 197.7,434.1" fill="orange"/>
<polygon points="297.1,311.5 305.1,319.5 297.1,327.5 289.1,319.5" fill="orange"/>
<polygon points="345.8,409.7 353.8,417.7 345.8,425.7 337.8,417.7" fill="orange"/>
<polygon points="187.5,360.6 195.5,368.6 187.5,376.6 179.5,368.6" fill="orange"/>
<polygon points="388.5,295.2 396.5,303.2 388.5,311.2 380.5,303.2" fill="orange"/>
<polygon points="236.2,438.4 244.2,446.4 236.2,454.4 228.2,446.4" fill="orange"/>
<polygon points="315.4,344.3 323.4,352.3 315.4,360.3 307.4,352.3" fill="orange"/>
<polygon points="278.8,413.8 286.8,421.8 278.8,429.8 270.8,421.8" fill="orange"/>
<polygon points="406.7,323.8 414.7,331.8 406.7,339.8 398.7,331.8" fill="orange"/>
<polygon points="199.6,385.2 207.6,393.2 199.6,401.2 191.6,393.2" fill="orange"/>
<polygon points="358.0,446.5 366.0,454.5 358.0,462.5 350.0,454.5" fill="orange"/>
<polygon points="248.4,303.4 256.4,311.4 248.4,319.4 240.4,311.4" fill="orange"/>
<polygon points="339.7,397.5 347.7,405.5 339.7,413.5 331.7,405.5" fill="orange"/>
<polygon points="224.0,332.0 232.0,340.0 224.0,348.0 216.0,340.0" fill="orange"/>
<polygon points="376.3,422.0 384.3,430.0 376.3,438.0 368.3,430.0" fill="orange"/>
<polygon points="291.0,282.9 299.0,290.9 291.0,298.9 283.0,290.9" fill="orange"/>
<polygon points="181.4,315.6 189.4,323.6 181.4,331.6 173.4,323.6" fill="orange"/>
<polygon points="327.5,372.9 335.5,380.9 327.5,388.9 319.5,380.9" fill="orange"/>
<polygon points="400.6,340.2 408.6,348.2 400.6,356.2 392.6,348.2" fill="orange"/>
<polygon points="266.6,405.6 274.6,413.6 266.6,421.6 258.6,413.6" fill="orange"/>
<polygon points="309.3,299.3 317.3,307.3 309.3,315.3 301.3,307.3" fill="orange"/>
<polygon points="211.8,352.5 219.8,360.5 211.8,368.5 203.8,360.5" fill="orange"/>
<polygon points="364.1,278.8 372.1,286.8 364.1,294.8 356.1,286.8" fill="orange"/>
<polygon points="242.3,426.1 250.3,434.1 242.3,442.1 234.3,434.1" fill="orange"/>
<polygon points="388.5,315.6 396.5,323.6 388.5,331.6 380.5,323.6" fill="orange"/>
<polygon points="278.8,266.5 286.8,274.5 278.8,282.5 270.8,274.5" fill="orange"/>
<polygon points="193.5,368.8 201.5,376.8 193.5,384.8 185.5,376.8" fill="orange"/>
<polygon points="351.9,393.4 359.9,401.4 351.9,409.4 343.9,401.4" fill="orange"/>
<polygon points="254.5,291.1 262.5,299.1 254.5,307.1 246.5,299.1" fill="orange"/>
<polygon points="412.8,364.7 420.8,372.7 412.8,380.7 404.8,372.7" fill="orange"/>
<rect x="540.8" y="227.6" width="12" height="12" fill="royalblue"/>
<rect x="662.6" y="166.3" width="12" height="12" fill="royalblue"/>
<rect x="479.9" y="125.4" width="12" height="12" fill="royalblue"/>
<rect x="632.2" y="268.5" width="12" height="12" fill="royalblue"/>
<rect x="571.3" y="207.2" width="12" height="12" fill="royalblue"/>
<rect x="693.1" y="145.8" width="12" height="12" fill="royalblue"/>
<rect x="510.4" y="248.1" width="12" height="12" fill="royalblue"/>
<rect x="601.7" y="186.7" width="12" height="12" fill="royalblue"/>
<rect x="449.5" y="227.6" width="12" height="12" fill="royalblue"/>
<rect x="674.8" y="256.3" width="12" height="12" fill="royalblue"/>
<rect x="528.6" y="158.1" width="12" height="12" fill="royalblue"/>
<rect x="589.5" y="117.2" width="12" height="12" fill="royalblue"/>
<rect x="650.5" y="239.9" width="12" height="12" fill="royalblue"/>
<rect x="498.2" y="174.5" width="12" height="12" fill="royalblue"/>
<rect x="705.3" y="207.2" width="12" height="12" fill="royalblue"/>
<rect x="553.0" y="133.5" width="12" height="12" fill="royalblue"/>
<rect x="620.0" y="260.4" width="12" height="12" fill="royalblue"/>
<rect x="467.7" y="186.7" width="12" height="12" fill="royalblue"/>
<rect x="668.7" y="113.1" width="12" height="12" fill="royalblue"/>
<rect x="522.5" y="215.4" width="12" height="12" fill="royalblue"/>
<rect x="577.4" y="264.5" width="12" height="12" fill="royalblue"/>
<rect x="638.3" y="154.0" width="12" height="12" fill="royalblue"/>
<rect x="486.0" y="104.9" width="12" height="12" fill="royalblue"/>
<rect x="680.9" y="199.0" width="12" height="12" fill="royalblue"/>
<rect x="461.6" y="166.3" width="12" height="12" fill="royalblue"/>
<rect x="595.6" y="235.8" width="12" height="12" fill="royalblue"/>
<rect x="626.1" y="121.3" width="12" height="12" fill="royalblue"/>
<rect x="534.7" y="256.3" width="12" height="12" fill="royalblue"/>
<rect x="699.2" y="178.5" width="12" height="12" fill="royalblue"/>
<rect x="565.2" y="141.7" width="12" height="12" fill="royalblue"/>
<rect x="492.1" y="211.3" width="12" height="12" fill="royalblue"/>
<rect x="656.5" y="248.1" width="12" height="12" fill="royalblue"/>
<rect x="449.5" y="137.6" width="12" height="12" fill="royalblue"/>
<rect x="607.8" y="96.7" width="12" height="12" fill="royalblue"/>
<rect x="546.9" y="190.8" width="12" height="12" fill="royalblue"/>
<rect x="687.0" y="231.7" width="12" height="12" fill="royalblue"/>
<rect x="516.5" y="129.5" width="12" height="12" fill="royalblue"/>
<rect x="644.4" y="194.9" width="12" height="12" fill="royalblue"/>
<rect x="473.8" y="244.0" width="12" height="12" fill="royalblue"/>
<rect x="583.5" y="109.0" width="12" height="12" fill="royalblue"/>
<rect x="504.3" y="268.5" width="12" height="12" fill="royalblue"/>
<rect x="711.4" y="162.2" width="12" height="12" fill="royalblue"/>
<rect x="559.1" y="219.5" width="12" height="12" fill="royalblue"/>
<rect x="613.9" y="252.2" width="12" height="12" fill="royalblue"/>
<rect x="455.5" y="117.2" width="12" height="12" fill="royalblue"/>
<rect x="662.6" y="182.6" width="12" height="12" fill="royalblue"/>
<rect x="540.8" y="100.8" width="12" height="12" fill="royalblue"/>
<rect x="632.2" y="215.4" width="12" height="12" fill="royalblue"/>
<rect x="479.9" y="149.9" width="12" height="12" fill="royalblue"/>
<rect x="571.3" y="170.4" width="12" height="12" fill="royalblue"/>
<text x="400" y="570" text-anchor="middle" font-family="Arial" font-size="15">Historico de Credito Normalizado</text>
<text x="25" y="300" text-anchor="middle" font-family="Arial" font-size="15" transform="rotate(-90 25 300)">Renda Mensal Normalizada</text>
<rect x="575" y="75" width="14" height="14" fill="royalblue"/>
<text x="598" y="87" font-family="Arial" font-size="13">Aprovado (1)</text>
<polygon points="582,110 590,118 582,126 574,118" fill="orange"/>
<text x="598" y="122" font-family="Arial" font-size="13">Recusado (-1)</text>
<line x1="574" y1="145" x2="590" y2="145" stroke="green" stroke-width="4"/>
<text x="598" y="149" font-family="Arial" font-size="13">Fronteira de Decisao</text>
</svg>