<svg xmlns="http://www.w3.org/2000/svg" width="800" height="600" viewBox="0 0 800 600">
<rect width="100%" height="100%" fill="white"/>
<text x="400" y="35" text-anchor="middle" font-family="Arial" font-size="20" font-weight="bold">Perceptron - Classificacao Chuva vs Sol</text>
<line x1="90" y1="520" x2="760" y2="520" stroke="black" stroke-width="2"/>
<line x1="90" y1="70" x2="90" y2="520" stroke="black" stroke-width="2"/>
<line x1="120.5" y1="70" x2="120.5" y2="520" stroke="#dddddd"/>
<line x1="90" y1="499.5" x2="760" y2="499.5" stroke="#dddddd"/>
<text x="120.5" y="545" text-anchor="middle" font-family="Arial" font-size="12">0.0</text>
<text x="78" y="503.5" text-anchor="end" font-family="Arial" font-size="12">0.0</text>
<line x1="242.3" y1="70" x2="242.3" y2="520" stroke="#dddddd"/>
<line x1="90" y1="417.7" x2="760" y2="417.7" stroke="#dddddd"/>
<text x="242.3" y="545" text-anchor="middle" font-family="Arial" font-size="12">0.2</text>
<text x="78" y="421.7" text-anchor="end" font-family="Arial" font-size="12">0.2</text>
<line x1="364.1" y1="70" x2="364.1" y2="520" stroke="#dddddd"/>
<line x1="90" y1="335.9" x2="760" y2="335.9" stroke="#dddddd"/>
<text x="364.1" y="545" text-anchor="middle" font-family="Arial" font-size="12">0.4</text>
<text x="78" y="339.9" text-anchor="end" font-family="Arial" font-size="12">0.4</text>
<line x1="485.9" y1="70" x2="485.9" y2="520" stroke="#dddddd"/>
<line x1="90" y1="254.1" x2="760" y2="254.1" stroke="#dddddd"/>
<text x="485.9" y="545" text-anchor="middle" font-family="Arial" font-size="12">0.6</text>
<text x="78" y="258.1" text-anchor="end" font-family="Arial" font-size="12">0.6</text>
<line x1="607.7" y1="70" x2="607.7" y2="520" stroke="#dddddd"/>
<line x1="90" y1="172.3" x2="760" y2="172.3" stroke="#dddddd"/>
<text x="607.7" y="545" text-anchor="middle" font-family="Arial" font-size="12">0.8</text>
<text x="78" y="176.3" text-anchor="end" font-family="Arial" font-size="12">0.8</text>
<line x1="729.5" y1="70" x2="729.5" y2="520" stroke="#dddddd"/>
<line x1="90" y1="90.5" x2="760" y2="90.5" stroke="#dddddd"/>
<text x="729.5" y="545" text-anchor="middle" font-family="Arial" font-size="12">1.0</text>
<text x="78" y="94.5" text-anchor="end" font-family="Arial" font-size="12">1.0</text>
<line x1="96.9" y1="520.0" x2="616.1" y2="70.0" stroke="green" stroke-width="4"/>
<polygon points="242.3,123.4 250.3,131.4 242.3,139.4 234.3,131.4" fill="orange"/>
<polygon points="333.6,143.8 341.6,151.8 333.6,159.8 325.6,151.8" fill="orange"/>
<polygon points="211.8,184.7 219.8,192.7 211.8,200.7 203.8,192.7" fill="orange"/>
<polygon points="364.1,164.3 372.1,172.3 364.1,180.3 356.1,172.3" fill="orange"/>
<polygon points="181.4,102.9 189.4,110.9 181.4,118.9 173.4,110.9" fill="orange"/>
<polygon points="272.7,205.2 280.7,213.2 272.7,221.2 264.7,213.2" fill="orange"/>
<polygon points="303.2,131.5 311.2,139.5 303.2,147.5 295.2,139.5" fill="orange"/>
<polygon points="394.5,197.0 402.5,205.0 394.5,213.0 386.5,205.0" fill="orange"/>
<polygon points="230.1,156.1 238.1,164.1 230.1,172.1 222.1,164.1" fill="orange"/>
<polygon points="351.9,119.3 359.9,127.3 351.9,135.3 343.9,127.3" fill="orange"/>
<polygon points="193.5,213.4 201.5,221.4 193.5,229.4 185.5,221.4" fill="orange"/>
<polygon points="376.3,176.5 384.3,184.5 376.3,192.5 368.3,184.5" fill="orange"/>
<polygon points="254.5,111.1 262.5,119.1 254.5,127.1 246.5,119.1" fill="orange"/>
<polygon points="321.5,217.5 329.5,225.5 321.5,233.5 313.5,225.5" fill="orange"/>
<polygon points="412.8,188.8 420.8,196.8 412.8,204.8 404.8,196.8" fill="orange"/>
<polygon points="187.5,139.7 195.5,147.7 187.5,155.7 179.5,147.7" fill="orange"/>
<polygon points="284.9,168.4 292.9,176.4 284.9,184.4 276.9,176.4" fill="orange"/>
<polygon points="388.5,98.8 396.5,106.8 388.5,114.8 380.5,106.8" fill="orange"/>
<polygon points="217.9,233.8 225.9,241.8 217.9,249.8 209.9,241.8" fill="orange"/>
<polygon points="345.8,147.9 353.8,155.9 345.8,163.9 337.8,155.9" fill="orange"/>
<polygon points="260.5,201.1 268.5,209.1 260.5,217.1 252.5,209.1" fill="orange"/>
<polygon points="370.2,127.5 378.2,135.5 370.2,143.5 362.2,135.5" fill="orange"/>
<polygon points="205.7,94.7 213.7,102.7 205.7,110.7 197.7,102.7" fill="orange"/>
<polygon points="297.1,221.5 305.1,229.5 297.1,237.5 289.1,229.5" fill="orange"/>
<polygon points="400.6,160.2 408.6,168.2 400.6,176.2 392.6,168.2" fill="orange"/>
<polygon points="236.2,192.9 244.2,200.9 236.2,208.9 228.2,200.9" fill="orange"/>
<polygon points="327.5,115.2 335.5,123.2 327.5,131.2 319.5,123.2" fill="orange"/>
<polygon points="199.6,172.5 207.6,180.5 199.6,188.5 191.6,180.5" fill="orange"/>
<polygon points="382.4,225.6 390.4,233.6 382.4,241.6 374.4,233.6" fill="orange"/>
<polygon points="278.8,135.6 286.8,143.6 278.8,151.6 270.8,143.6" fill="orange"/>
<polygon points="224.0,107.0 232.0,115.0 224.0,123.0 216.0,115.0" fill="orange"/>
<polygon points="358.0,209.3 366.0,217.3 358.0,225.3 350.0,217.3" fill="orange"/>
<polygon points="266.6,152.0 274.6,160.0 266.6,168.0 258.6,160.0" fill="orange"/>
<polygon points="406.7,180.6 414.7,188.6 406.7,196.6 398.7,188.6" fill="orange"/>
<polygon points="248.4,237.9 256.4,245.9 248.4,253.9 240.4,245.9" fill="orange"/>
<polygon points="315.4,123.4 323.4,131.4 315.4,139.4 307.4,131.4" fill="orange"/>
<polygon points="181.4,197.0 189.4,205.0 181.4,213.0 173.4,205.0" fill="orange"/>
<polygon points="339.7,102.9 347.7,110.9 339.7,118.9 331.7,110.9" fill="orange"/>
<polygon points="291.0,229.7 299.0,237.7 291.0,245.7 283.0,237.7" fill="orange"/>
<polygon points="394.5,143.8 402.5,151.8 394.5,159.8 386.5,151.8" fill="orange"/>
<polygon points="187.5,164.3 195.5,172.3 187.5,180.3 179.5,172.3" fill="orange"/>
<polygon points="309.3,188.8 317.3,196.8 309.3,204.8 301.3,196.8" fill="orange"/>
<polygon points="242.3,217.5 250.3,225.5 242.3,233.5 234.3,225.5" fill="orange"/>
<polygon points="382.4,119.3 390.4,127.3 382.4,135.3 374.4,127.3" fill="orange"/>
<polygon points="211.8,131.5 219.8,139.5 211.8,147.5 203.8,139.5" fill="orange"/>
<polygon points="351.9,205.2 359.9,213.2 351.9,221.2 343.9,213.2" fill="orange"/>
<polygon points="278.8,98.8 286.8,106.8 278.8,114.8 270.8,106.8" fill="orange"/>
<polygon points="412.8,233.8 420.8,241.8 412.8,249.8 404.8,241.8" fill="orange"/>
<polygon points="254.5,176.5 262.5,184.5 254.5,192.5 246.5,184.5" fill="orange"/>
<polygon points="333.6,156.1 341.6,164.1 333.6,172.1 325.6,164.1" fill="orange"/>
<rect x="449.5" y="309.5" width="12" height="12" fill="royalblue"/>
<rect x="632.2" y="370.8" width="12" height="12" fill="royalblue"/>
<rect x="662.6" y="411.7" width="12" height="12" fill="royalblue"/>
<rect x="571.3" y="350.4" width="12" height="12" fill="royalblue"/>
<rect x="693.1" y="452.6" width="12" height="12" fill="royalblue"/>
<rect x="540.8" y="391.3" width="12" height="12" fill="royalblue"/>
<rect x="479.9" y="329.9" width="12" height="12" fill="royalblue"/>
<rect x="601.7" y="432.2" width="12" height="12" fill="royalblue"/>
<rect x="510.4" y="362.6" width="12" height="12" fill="royalblue"/>
<rect x="589.5" y="321.7" width="12" height="12" fill="royalblue"/>
<rect x="650.5" y="403.5" width="12" height="12" fill="royalblue"/>
<rect x="467.7" y="338.1" width="12" height="12" fill="royalblue"/>
<rect x="674.8" y="444.5" width="12" height="12" fill="royalblue"/>
<rect x="522.5" y="379.0" width="12" height="12" fill="royalblue"/>
<rect x="559.1" y="419.9" width="12" height="12" fill="royalblue"/>
<rect x="455.5" y="313.5" width="12" height="12" fill="royalblue"/>
<rect x="620.0" y="460.8" width="12" height="12" fill="royalblue"/>
<rect x="705.3" y="424.0" width="12" height="12" fill="royalblue"/>
<rect x="492.1" y="346.3" width="12" height="12" fill="royalblue"/>
<rect x="577.4" y="383.1" width="12" height="12" fill="royalblue"/>
<rect x="656.5" y="358.5" width="12" height="12" fill="royalblue"/>
<rect x="443.4" y="297.2" width="12" height="12" fill="royalblue"/>
<rect x="546.9" y="436.3" width="12" height="12" fill="royalblue"/>
<rect x="680.9" y="407.6" width="12" height="12" fill="royalblue"/>
<rect x="516.5" y="334.0" width="12" height="12" fill="royalblue"/>
<rect x="613.9" y="448.5" width="12" height="12" fill="royalblue"/>
<rect x="461.6" y="317.6" width="12" height="12" fill="royalblue"/>
<rect x="595.6" y="387.2" width="12" height="12" fill="royalblue"/>
<rect x="687.0" y="428.1" width="12" height="12" fill="royalblue"/>
<rect x="498.2" y="342.2" width="12" height="12" fill="royalblue"/>
<rect x="644.4" y="456.7" width="12" height="12" fill="royalblue"/>
<rect x="431.2" y="305.4" width="12" height="12" fill="royalblue"/>
<rect x="565.2" y="366.7" width="12" height="12" fill="royalblue"/>
<rect x="699.2" y="415.8" width="12" height="12" fill="royalblue"/>
<rect x="486.0" y="325.8" width="12" height="12" fill="royalblue"/>
<rect x="626.1" y="395.4" width="12" height="12" fill="royalblue"/>
<rect x="534.7" y="440.4" width="12" height="12" fill="royalblue"/>
<rect x="668.7" y="374.9" width="12" height="12" fill="royalblue"/>
<rect x="583.5" y="313.5" width="12" height="12" fill="royalblue"/>
<rect x="437.3" y="301.3" width="12" height="12" fill="royalblue"/>
<rect x="638.3" y="411.7" width="12" height="12" fill="royalblue"/>
<rect x="504.3" y="354.5" width="12" height="12" fill="royalblue"/>
<rect x="553.0" y="460.8" width="12" height="12" fill="royalblue"/>
<rect x="711.4" y="399.5" width="12" height="12" fill="royalblue"/>
<rect x="473.8" y="321.7" width="12" height="12" fill="royalblue"/>
<rect x="607.8" y="419.9" width="12" height="12" fill="royalblue"/>
<rect x="528.6" y="370.8" width="12" height="12" fill="royalblue"/>
<rect x="693.1" y="436.3" width="12" height="12" fill="royalblue"/>
<rect x="577.4" y="338.1" width="12" height="12" fill="royalblue"/>
<rect x="449.5" y="350.4" width="12" height="12" fill="royalblue"/>
<text x="400" y="570" text-anchor="middle" font-family="Arial" font-size="15">Umidade Normalizada</text>
<text x="25" y="300" text-anchor="middle" font-family="Arial" font-size="15" transform="rotate(-90 25 300)">Pressao Normalizada</text>
<rect x="575" y="75" width="14" height="14" fill="royalblue"/>
<text x="598" y="87" font-family="Arial" font-size="13">Chuva (1)</text>
<polygon points="582,110 590,118 582,126 574,118" fill="orange"/>
<text x="598" y="122" font-family="Arial" font-size="13">Sol (-1)</text>
<line x1="574" y1="145" x2="590" y2="145" stroke="green" stroke-width="4"/>
<text x="598" y="149" font-family="Arial" font-size="13">Fronteira de Decisao</text>
</svg>